<?xml version="1.0" encoding="UTF-8"?>
<svg version="1.1" xmlns="http://www.w3.org/2000/svg" width="5" height="5">
<path d="M0 0 C5.44293521 0.00513196 10.88585942 -0.00146931 16.32879301 -0.00648667 C25.84269786 -0.01367049 35.35657995 -0.01351542 44.87048581 -0.00839235 C59.01848921 -0.00079476 73.16647359 -0.00471172 87.31447689 -0.01080896 C111.1270897 -0.02090371 134.93969448 -0.0211094 158.75230839 -0.01565553 C182.33338846 -0.01025738 205.91446432 -0.00814867 229.49554494 -0.01069642 C230.97961554 -0.01085138 232.46368614 -0.01100569 233.94775674 -0.01115936 C239.91236837 -0.01178035 245.87698 -0.01241769 251.84159162 -0.01307889 C268.51261996 -0.01491244 285.18364832 -0.01605398 301.85467675 -0.01665116 C302.61368386 -0.01667846 303.37269097 -0.01670575 304.1546983 -0.01673387 C328.32131167 -0.0175518 352.48792377 -0.01530187 376.65453675 -0.01095201 C377.43776783 -0.01081151 378.22099891 -0.01067101 379.02796427 -0.01052626 C391.74525292 -0.00823666 404.46254154 -0.00579759 417.17983016 -0.00334591 C467.6132383 0.00636644 518.04663582 0.00591472 568.48004391 -0.00380708 C581.19227617 -0.00624967 593.90450844 -0.00867186 606.61674073 -0.01095201 C607.39959128 -0.0110929 608.18244184 -0.0112338 608.98901514 -0.01137897 C633.1324937 -0.01569442 657.27597137 -0.01751931 681.41945031 -0.01665116 C682.17787892 -0.016624 682.93630754 -0.01659683 683.71771884 -0.01656884 C700.3699486 -0.01594375 717.02217826 -0.01467622 733.67440792 -0.01283016 C739.63321031 -0.01217194 745.5920127 -0.01154577 751.55081509 -0.01092874 C753.03306481 -0.01077396 754.51531453 -0.0106165 755.99756426 -0.01045634 C779.56820779 -0.00791655 803.13884669 -0.0107588 826.70948961 -0.01615663 C851.11804954 -0.02168523 875.52659874 -0.01961546 899.93515715 -0.00909404 C913.99130898 -0.00323439 928.04743548 -0.00281943 942.10358664 -0.01038639 C951.50649425 -0.01488866 960.90938166 -0.01204855 970.31228629 -0.00337685 C975.66017252 0.00135543 981.00800861 0.00306058 986.35589317 -0.00418882 C1012.3888318 -0.0369095 1038.3988781 -0.03588542 1064.19366696 4.00693511 C1065.84592282 4.26180693 1065.84592282 4.26180693 1067.53155759 4.52182769 C1095.95448037 9.10545009 1123.73512836 17.49466564 1149.56866696 30.25693511 C1150.23752926 30.58516265 1150.90639157 30.91339019 1151.59552243 31.25156401 C1166.96084461 38.8819621 1181.29121244 48.41462917 1194.56866696 59.25693511 C1195.11555173 59.70085601 1195.66243649 60.14477691 1196.22589352 60.60214995 C1209.92395272 71.80139893 1222.82239222 84.17163928 1233.56866696 98.25693511 C1234.48499393 99.42126503 1235.40168464 100.58530875 1236.31866696 101.74912261 C1256.08834698 127.14864386 1269.79609488 155.46879622 1281.56866696 185.25693511 C1281.89071103 186.07178374 1282.21275509 186.88663237 1282.54455807 187.72617339 C1287.07855589 199.21096364 1291.5698539 210.71233117 1296.04884579 222.21866607 C1299.79979692 231.85465753 1303.5659715 241.48465523 1307.33545163 251.11341094 C1308.44945894 253.95923119 1309.56306583 256.80520785 1310.67657712 259.65122222 C1316.29990472 274.02268482 1321.93311398 288.39026281 1327.56866696 302.75693511 C1333.95016157 319.02523073 1340.32672452 335.29543827 1346.69366696 351.56943511 C1347.06203671 352.51098449 1347.43040646 353.45253386 1347.80993893 354.42261504 C1350.76460993 361.97495991 1353.7187752 369.52750257 1356.67291501 377.08005523 C1359.26292513 383.70160929 1361.85314304 390.32308203 1364.44366696 396.94443511 C1364.81187558 397.88558165 1365.1800842 398.8267282 1365.55945065 399.79639434 C1371.55480036 415.1196057 1377.55995082 430.43896081 1383.56866696 445.75693511 C1389.95016157 462.02523073 1396.32672452 478.29543827 1402.69366696 494.56943511 C1403.06203671 495.51098449 1403.43040646 496.45253386 1403.80993893 497.42261504 C1406.76460993 504.97495991 1409.7187752 512.52750257 1412.67291501 520.08005523 C1415.26292513 526.70160929 1417.85314304 533.32308203 1420.44366696 539.94443511 C1420.81187558 540.88558165 1421.1800842 541.8267282 1421.55945065 542.79639434 C1428.39022351 560.25482152 1435.23390862 577.70817327 1442.08087399 595.16025542 C1446.24390289 605.77231328 1450.40299144 616.38588808 1454.55304196 627.00302886 C1454.95688107 628.03598082 1455.36072018 629.06893279 1455.77679684 630.13318633 C1457.67977683 635.00086814 1459.5819964 639.86884423 1461.48272946 644.73740386 C1462.17270956 646.50307735 1462.86281105 648.2687034 1463.55304196 650.03427886 C1463.88235715 650.87739623 1464.21167233 651.7205136 1464.55096676 652.58917998 C1466.29727003 657.04940695 1468.06500602 661.50001564 1469.85968259 665.94101714 C1470.23224179 666.86427291 1470.60480099 667.78752868 1470.98864987 668.73876189 C1471.70404592 670.50797325 1472.42245967 672.27596822 1473.14428952 674.04256438 C1473.46254696 674.82946151 1473.78080441 675.61635863 1474.10870602 676.42710112 C1474.39135312 677.12046065 1474.67400021 677.81382018 1474.96521237 678.5281906 C1475.56866696 680.25693511 1475.56866696 680.25693511 1475.56866696 682.25693511 C1476.24308835 682.3001187 1476.91750973 682.3433023 1477.61236813 682.38779448 C1484.26607551 682.89157436 1490.45910273 683.96478634 1496.88116696 685.75693511 C1497.82266598 686.01829253 1498.76416501 686.27964995 1499.7341943 686.5489273 C1529.36179739 695.10112364 1557.42357648 710.17047428 1581.56866696 729.25693511 C1582.42589352 729.92209136 1583.28312009 730.58724761 1584.16632321 731.27256011 C1589.36274471 735.3525943 1594.31397907 739.64796991 1599.19366696 744.10068511 C1601.33253254 746.04254991 1603.50286081 747.93671107 1605.69366696 749.81943511 C1612.53583389 755.7942851 1618.72362921 762.31320605 1624.56866696 769.25693511 C1625.00243649 769.76095855 1625.43620602 770.26498198 1625.88312009 770.78427886 C1671.76717674 824.26421569 1692.17928443 889.89374806 1691.92943051 959.62952422 C1691.92906576 962.39496057 1691.93324987 965.16038616 1691.93719801 967.92581927 C1691.94335195 973.88755548 1691.938605 979.8492009 1691.92628338 985.81092643 C1691.90801382 994.67547178 1691.90729105 1003.53996113 1691.90990935 1012.40452188 C1691.91383148 1027.32343363 1691.90390176 1042.24230521 1691.88585713 1057.16120528 C1691.86805738 1071.91573154 1691.85654951 1086.67024105 1691.85329869 1101.42477797 C1691.85309247 1102.34491135 1691.85288625 1103.26504473 1691.85267378 1104.21306094 C1691.85165867 1108.88665786 1691.85075456 1113.56025481 1691.84989316 1118.23385176 C1691.84360529 1151.26825028 1691.82343069 1184.30262699 1691.79498532 1217.33701323 C1691.76739681 1249.41350946 1691.74616326 1281.4899997 1691.73346188 1313.56650542 C1691.7330673 1314.55663292 1691.73267272 1315.54676042 1691.73226619 1316.56689179 C1691.72831036 1326.51088258 1691.72448296 1336.45487342 1691.72074961 1346.39886429 C1691.7131426 1366.65281424 1691.70467885 1386.9067638 1691.69569638 1407.16071318 C1691.69528451 1408.09179378 1691.69487264 1409.02287437 1691.69444829 1409.98216953 C1691.68178839 1438.4994707 1691.66549999 1467.01676819 1691.64561703 1495.53406524 C1691.64477302 1496.74763958 1691.64477302 1496.74763958 1691.64391196 1497.98573057 C1691.6210751 1530.74280044 1691.59438723 1563.4998674 1691.56866696 1596.25693511 C1628.53866696 1596.25693511 1565.50866696 1596.25693511 1500.56866696 1596.25693511 C1500.59187009 1611.59420073 1500.61507321 1626.93146636 1500.63897946 1642.73349761 C1500.64920412 1652.47698787 1500.6589155 1662.22047422 1500.66632321 1671.96396636 C1500.6781637 1687.41336147 1500.69203936 1702.86273467 1500.71954587 1718.31211089 C1500.73957418 1729.56669741 1500.75240565 1740.82126606 1500.75684395 1752.07586991 C1500.75943544 1758.02678731 1500.76546153 1763.97765361 1500.78012707 1769.92855452 C1500.79386072 1775.54767319 1500.79785826 1781.16672047 1500.79488232 1786.78585433 C1500.79542552 1788.83101541 1500.7993078 1790.87617928 1500.80707791 1792.92132567 C1500.87220452 1810.97254612 1500.11151697 1829.10412303 1496.38116696 1846.81943511 C1496.05753171 1848.37573638 1496.05753171 1848.37573638 1495.72735837 1849.96347808 C1485.69769338 1896.15922566 1459.15905494 1935.4186246 1419.56866696 1961.25693511 C1378.63391249 1987.19149026 1326.62536357 1994.78552259 1279.4216943 1984.90732573 C1271.64993932 1983.13563694 1264.08608209 1980.90025384 1256.56866696 1978.25693511 C1255.59510251 1977.92121489 1255.59510251 1977.92121489 1254.60187009 1977.57871245 C1212.64497627 1962.84096827 1178.23086533 1931.97972168 1158.56866696 1892.25693511 C1116.79623061 1804.90291433 1139.56866696 1672.04778376 1139.56866696 1596.25693511 C712.21866696 1596.25693511 284.86866696 1596.25693511 -155.43133304 1596.25693511 C-155.43133304 1663.90693511 -155.43133304 1731.55693511 -155.43133304 1801.25693511 C-156.60449562 1827.06651195 -156.60449562 1827.06651195 -158.11883304 1836.31943511 C-158.3772095 1837.93857817 -158.3772095 1837.93857817 -158.6408057 1839.5904312 C-160.41020673 1850.07571353 -163.10685538 1860.16606715 -166.43133304 1870.25693511 C-166.65514652 1870.95399566 -166.87895999 1871.6510562 -167.1095557 1872.3692398 C-180.74905479 1914.19432066 -211.68641139 1948.20653103 -250.43133304 1968.25693511 C-251.09326663 1968.60353179 -251.75520023 1968.95012847 -252.43719241 1969.30722808 C-270.6696437 1978.73795908 -290.1803409 1984.21647905 -310.43133304 1987.25693511 C-311.09020511 1987.36006011 -311.74907718 1987.46318511 -312.42791507 1987.56943511 C-359.58024574 1993.91839043 -409.11658376 1981.97645305 -447.42303226 1953.79257964 C-460.9020876 1943.48583783 -472.32325604 1931.83955278 -482.43133304 1918.25693511 C-483.07207767 1917.39866118 -483.07207767 1917.39866118 -483.72576663 1916.52304839 C-502.96459864 1890.33205339 -513.44785135 1857.4266507 -516.43133304 1825.25693511 C-516.51378489 1824.36884343 -516.59623674 1823.48075175 -516.68118713 1822.5657482 C-517.57905044 1811.6831517 -517.56537543 1800.84372775 -517.54485843 1789.93125151 C-517.54457585 1787.81098684 -517.54473568 1785.69072207 -517.54530094 1783.57045745 C-517.54558613 1777.85451794 -517.53973447 1772.1385997 -517.53272698 1766.42266511 C-517.52644704 1760.43426656 -517.52588598 1754.44586745 -517.52470157 1748.45746611 C-517.52160188 1737.13544294 -517.51340696 1725.8134295 -517.50335208 1714.4914106 C-517.49005085 1699.17933466 -517.48468002 1683.86725604 -517.47884986 1668.55517577 C-517.46946608 1644.45575493 -517.44953807 1620.35635463 -517.43133304 1596.25693511 C-580.46133304 1596.25693511 -643.49133304 1596.25693511 -708.43133304 1596.25693511 C-708.49172539 1519.34186376 -708.49172539 1519.34186376 -708.50828311 1495.53406524 C-708.50887511 1494.68498271 -708.50946712 1493.83590018 -708.51007706 1492.96108788 C-708.52996379 1464.36096458 -708.545711 1435.76084056 -708.55836246 1407.16071318 C-708.55877663 1406.2268272 -708.5591908 1405.29294122 -708.55961752 1404.33075566 C-708.56859764 1384.03164535 -708.57690799 1363.73253481 -708.58452903 1343.43342393 C-708.58827082 1333.47778438 -708.59216051 1323.52214489 -708.59612796 1313.56650542 C-708.59652024 1312.57583477 -708.59691252 1311.58516411 -708.59731668 1310.56447313 C-708.61008551 1278.49249562 -708.63260805 1246.42053403 -708.6602247 1214.34856616 C-708.6885684 1181.37211786 -708.707 1148.39567836 -708.71307801 1115.41921809 C-708.71394239 1110.7544047 -708.7149193 1106.08959133 -708.71596477 1101.42477797 C-708.71616704 1100.5067359 -708.71636931 1099.58869383 -708.71657771 1098.6428323 C-708.72011367 1083.9045202 -708.73400295 1069.16623542 -708.75182914 1054.42793443 C-708.76955619 1039.58697064 -708.77622071 1024.74603376 -708.77183717 1009.90505976 C-708.76956699 1001.10333216 -708.77553441 992.30170359 -708.79372567 983.499994 C-708.80507936 977.59982998 -708.80525201 971.69972988 -708.79682848 965.79956124 C-708.79235313 962.45088246 -708.79398471 959.10253792 -708.80598259 955.75385642 C-708.97021859 907.03893958 -698.34895573 861.33699345 -675.43133304 818.25693511 C-675.11873538 817.66896148 -674.80613773 817.08098784 -674.48406741 816.47519683 C-664.74345258 798.37035838 -652.38626855 781.60378878 -638.47820804 766.48740386 C-636.58462117 764.42397236 -634.7530714 762.3211893 -632.93133304 760.19443511 C-626.63789096 752.98531901 -619.7585681 746.40198049 -612.43133304 740.25693511 C-611.91280765 739.81398101 -611.39428226 739.37102691 -610.86004398 738.91464995 C-595.07684199 725.47116886 -577.86404865 713.76980861 -559.43133304 704.25693511 C-558.1759473 703.60579741 -558.1759473 703.60579741 -556.89520023 702.94150542 C-537.79875041 693.15003546 -514.41222333 681.73513356 -492.43133304 682.25693511 C-492.25904682 681.64944426 -492.08676059 681.04195342 -491.90925357 680.41605376 C-490.12073031 674.26501306 -488.00532231 668.33767754 -485.61492679 662.39756011 C-485.24661746 661.47198302 -484.87830814 660.54640593 -484.49883792 659.59278106 C-483.70615398 657.60183905 -482.9116159 655.61163442 -482.11538455 653.62210845 C-479.96203409 648.24081464 -477.82295851 642.85384074 -475.68133304 637.46787261 C-475.24167713 636.36335753 -474.80202121 635.25884246 -474.34904239 634.12085723 C-469.98057133 623.1408212 -465.66829298 612.13914151 -461.36883304 601.13193511 C-460.62398048 599.22600262 -459.87910736 597.32007817 -459.1342139 595.41416167 C-457.64416822 591.60115934 -456.15457754 587.78797961 -454.66521976 583.97470855 C-451.30013069 575.36000691 -447.92874733 566.7477681 -444.55788944 558.13532256 C-442.67954848 553.33610163 -440.80153151 548.53675393 -438.92352054 543.73740386 C-438.55186267 542.78763167 -438.18020481 541.83785949 -437.79728458 540.85930632 C-435.56703689 535.159771 -433.33718975 529.46007914 -431.10766361 523.76026152 C-422.46986608 501.6776542 -413.82238182 479.59887947 -405.1633887 457.52457427 C-396.98034052 436.66304745 -388.81229112 415.79567482 -380.64910648 394.9263687 C-377.28633248 386.32958475 -373.92228271 377.73330001 -370.5583472 369.13697051 C-368.68262527 364.34364515 -366.80698313 359.55028857 -364.93133304 354.75693511 C-364.18133342 352.84026829 -363.43133342 350.92360163 -362.68133304 349.00693511 C-362.31008304 348.05818511 -361.93883304 347.10943511 -361.55633304 346.13193511 C-358.18133314 337.50693536 -358.18133314 337.50693536 -357.05630252 334.63185881 C-356.30640271 332.71544706 -355.55650444 330.79903471 -354.8066077 328.88262175 C-352.93008736 324.08704998 -351.05354026 319.29148869 -349.17693851 314.49594878 C-345.45125149 304.97510176 -341.72599417 295.45408701 -338.00164554 285.93271636 C-334.65012771 277.3646265 -331.2974768 268.7969808 -327.94366214 260.22978972 C-325.93539544 255.09974053 -323.92758358 249.96951411 -321.92059085 244.83896636 C-317.26008238 232.92629609 -312.59342803 221.01608558 -307.91128299 209.11190032 C-306.06350936 204.41358894 -304.21795371 199.71447127 -302.38250491 195.01132964 C-285.80870064 152.55285663 -266.3599693 113.34380485 -234.43133304 80.25693511 C-233.58151859 79.37424956 -233.58151859 79.37424956 -232.71453616 78.47373198 C-225.35382006 70.86901424 -217.8827815 63.65987258 -209.43133304 57.25693511 C-208.79775882 56.77402007 -208.1641846 56.29110503 -207.51141116 55.7935562 C-196.33352219 47.32680013 -184.80588304 39.85317711 -172.43133304 33.25693511 C-171.59102542 32.8060855 -170.75071781 32.35523589 -169.88494632 31.89072417 C-117.03432651 3.98496314 -58.59800135 -0.07948721 0 0 Z " fill="#000000" transform="translate(708.4313330398872,-0.25693510845303535)"/>
<path d="M0 0 C1.82175342 -0.00269899 3.64350573 -0.00626998 5.46525595 -0.01062447 C10.44899181 -0.02002436 15.43265402 -0.0171008 20.41639335 -0.01206893 C25.84695377 -0.00878871 31.2774989 -0.01709609 36.70805436 -0.02388728 C46.21865486 -0.03417537 55.729235 -0.03703314 65.23984051 -0.03497505 C79.3828074 -0.03192202 93.52575182 -0.04025571 107.66871434 -0.0507243 C134.39883074 -0.07005739 161.12893941 -0.07569351 187.85906198 -0.07683842 C190.80516507 -0.07696792 193.75126816 -0.0771038 196.69737124 -0.07724524 C197.42849391 -0.07727924 198.15961658 -0.07731325 198.91289448 -0.07734829 C215.13091954 -0.078166 231.34894305 -0.08254838 247.56696729 -0.08755693 C254.24970097 -0.0896137 260.93243469 -0.09159379 267.61516839 -0.09358943 C268.35360049 -0.0938106 269.09203259 -0.09403178 269.85284142 -0.09425966 C312.15441929 -0.10690346 354.45599614 -0.11515835 396.75757599 -0.11424255 C398.3398274 -0.114211 399.9220788 -0.11417952 401.50433021 -0.11414814 C408.64771157 -0.11400138 415.79109292 -0.11382504 422.93447428 -0.11364037 C426.11974714 -0.11355812 429.30501999 -0.11347783 432.49029285 -0.11339774 C434.08457682 -0.11335695 435.67886078 -0.11331491 437.27314474 -0.11327162 C487.68425394 -0.11191119 538.09533503 -0.12654666 588.50643635 -0.15435219 C601.20843561 -0.16135452 613.9104349 -0.16829356 626.61243439 -0.17488098 C627.39460097 -0.17528673 628.17676755 -0.17569248 628.98263615 -0.17611052 C653.09876333 -0.18854501 677.2148882 -0.1960725 701.33101845 -0.19859695 C702.08842591 -0.19867686 702.84583336 -0.19875676 703.62619256 -0.19883908 C720.25495292 -0.20054581 736.88371314 -0.20106796 753.51247357 -0.20049833 C759.46284464 -0.20030537 765.4132157 -0.20020127 771.36358677 -0.20014087 C772.8438186 -0.20012504 774.32405042 -0.20010463 775.80428225 -0.20007962 C799.36438794 -0.19972736 822.92446952 -0.21110726 846.48456831 -0.22838725 C870.88128904 -0.24618991 895.27797066 -0.24931579 919.6746948 -0.235763 C933.73207703 -0.22837479 947.78935374 -0.23202812 961.84672478 -0.25164768 C971.24321836 -0.26365316 980.63963557 -0.26105021 990.03612565 -0.24670668 C995.3855261 -0.23894869 1000.73472248 -0.23737763 1006.08410849 -0.25362138 C1055.53412671 -0.39408572 1055.53412671 -0.39408572 1073.64486408 8.06976891 C1074.80973347 8.58905968 1074.80973347 8.58905968 1075.99813557 9.11884117 C1086.60610799 13.96481375 1095.10855548 20.20851671 1103.51986408 28.25726891 C1104.42478596 29.06744469 1104.42478596 29.06744469 1105.34798908 29.89398766 C1126.36532784 49.38904253 1135.80191608 79.34527364 1145.31663227 105.52399254 C1149.23233125 116.27015225 1153.33105937 126.945795 1157.42538166 137.62488365 C1159.68479085 143.51906148 1161.93799534 149.4156105 1164.19173908 155.31195641 C1164.6392049 156.48223381 1165.08667072 157.65251122 1165.54769611 158.85825157 C1170.05570043 170.65136676 1174.53924514 182.45372802 1179.01986408 194.25726891 C1185.66660697 211.76490519 1192.3358731 229.26381999 1199.01986408 246.75726891 C1205.70385537 264.25071864 1212.37279169 281.74975728 1219.01986408 299.25726891 C1226.62131095 319.27800635 1234.25261745 339.28722925 1241.89486408 359.29242516 C1242.77377947 361.59320291 1243.65268583 363.89398412 1244.53158283 366.19476891 C1244.95974293 367.31560875 1245.38790302 368.43644859 1245.82903767 369.59125328 C1250.35941105 381.45256283 1254.88018724 393.31752494 1259.3943758 405.18500328 C1263.03009698 414.73990423 1266.68081666 424.288914 1270.34433079 433.83319664 C1271.79266478 437.60764786 1273.23907499 441.38283683 1274.68548489 445.15802574 C1275.86680298 448.24070873 1277.04992131 451.322683 1278.23544025 454.40375328 C1279.55878242 457.84326241 1280.87763443 461.28446398 1282.19564533 464.72601891 C1282.58867344 465.74401573 1282.98170155 466.76201256 1283.3866396 467.81085777 C1283.75585026 468.77737267 1284.12506092 469.74388756 1284.50545979 470.73969078 C1284.82360142 471.56787315 1285.14174305 472.39605553 1285.46952534 473.24933434 C1286.96665291 477.53677189 1288.21492777 481.90748121 1289.51986408 486.25726891 C775.37986408 486.25726891 261.23986408 486.25726891 -268.48013592 486.25726891 C-267.77786834 482.74593102 -267.10401578 479.96950691 -265.86392498 476.69721031 C-265.53052608 475.81181068 -265.19712719 474.92641106 -264.8536253 474.01418114 C-264.48803005 473.05541573 -264.12243481 472.09665031 -263.74576092 471.10883141 C-263.36062832 470.08976204 -262.97549572 469.07069267 -262.57869244 468.02074242 C-261.29969153 464.63977867 -260.01498798 461.26101296 -258.73013592 457.88226891 C-257.82631054 455.49719524 -256.92275057 453.11202099 -256.01944256 450.72675133 C-248.36639726 430.53312652 -240.66098235 410.35937203 -232.94873333 390.18829918 C-227.60759645 376.21820033 -222.2883628 362.23990179 -216.98013592 348.25726891 C-210.3726187 330.85474307 -203.74686724 313.45926609 -197.10513592 296.06976891 C-196.66913067 294.92819328 -196.23312542 293.78661766 -195.78390789 292.61044884 C-192.23894854 283.32932226 -188.69293623 274.04859806 -185.14688396 264.76788902 C-182.04914471 256.66036941 -178.95181832 248.55269225 -175.85513592 240.44476891 C-175.41896954 239.30279045 -174.98280315 238.160812 -174.53341961 236.98422813 C-167.94401682 219.72979107 -161.37474522 202.46778797 -154.81964397 185.20029259 C-150.24080928 173.13908645 -145.65252495 161.08157449 -141.04654217 149.03070641 C-140.59070751 147.83792076 -140.13487286 146.64513512 -139.66522503 145.41620445 C-137.39496705 139.47629627 -135.12339548 133.53689415 -132.85025311 127.59808922 C-129.12627492 117.8617958 -125.40781116 108.12486366 -121.80435467 98.34320641 C-112.17948836 72.21890475 -102.29167755 48.29555207 -82.48013592 28.25726891 C-81.57714764 27.24599937 -81.57714764 27.24599937 -80.65591717 26.21430016 C-60.40249365 3.92022943 -28.33418293 -0.0733247 0 0 Z " fill="#FEFEFE" transform="translate(689.4801359176636,183.74273109436035)"/>
<path d="M0 0 C2.10434597 0.44538777 4.21226388 0.81686492 6.33251953 1.17822266 C37.19317033 6.78010543 63.08617988 23.97836292 86.07861328 44.43994141 C87.09568359 45.34486328 87.09568359 45.34486328 88.13330078 46.26806641 C94.164607 51.98193545 99.08106206 58.83146503 104.07861328 65.43994141 C104.72056641 66.28685547 105.36251953 67.13376953 106.02392578 68.00634766 C132.54953128 104.46363335 142.31784004 150.87525739 135.64111328 195.18994141 C132.34705521 214.4982135 125.67527597 233.37699551 116.07861328 250.43994141 C115.27037109 251.9578125 115.27037109 251.9578125 114.44580078 253.50634766 C92.9450597 292.50889971 56.19261143 319.24700534 13.92626953 331.69384766 C-27.58281542 343.11411367 -72.10584692 337.86795154 -109.74951172 316.80322266 C-138.3677047 300.12026684 -161.92010302 276.04596615 -176.92138672 246.43994141 C-177.39632568 245.50867432 -177.39632568 245.50867432 -177.88085938 244.55859375 C-185.77848673 228.8746894 -190.96515557 212.74128423 -193.92138672 195.43994141 C-194.03998047 194.7499707 -194.15857422 194.06 -194.28076172 193.34912109 C-201.37886193 149.85213202 -190.49255286 105.37948776 -165.71044922 69.21337891 C-163.52219581 66.21934266 -161.25788065 63.31971767 -158.92138672 60.43994141 C-158.47037598 59.88209961 -158.01936523 59.32425781 -157.5546875 58.74951172 C-129.49055504 24.28945608 -89.43201698 2.67848799 -45.18164062 -2.38354492 C-30.09964414 -3.56136772 -14.79440975 -3.23096305 0 0 Z " fill="#FEFEFE" transform="translate(406.92138671875,866.56005859375)"/>
<path d="M0 0 C3.21004327 2.76602156 6.30916336 5.63396126 9.37890625 8.5546875 C11.89113668 10.9818704 11.89113668 10.9818704 14.40234375 12.8203125 C27.80219642 24.06409865 38.14456111 40.55445817 46 56 C46.34901367 56.67498535 46.69802734 57.3499707 47.05761719 58.04541016 C67.72572852 98.38156292 70.29333815 145.12996668 56.7265625 188.1015625 C48.65188248 212.63704634 35.82401105 234.25693838 18 253 C17.52046875 253.5067627 17.0409375 254.01352539 16.546875 254.53564453 C-11.66279281 284.16113847 -51.94614804 303.9012319 -93.20410156 305.06201172 C-140.94667856 306.19428373 -183.41429104 289.90743582 -218.01171875 256.91796875 C-251.13260972 224.77890173 -267.33447532 180.53861473 -268.3996582 134.98339844 C-268.5359409 121.53801119 -267.24168491 109.03225698 -264 96 C-263.68457137 94.64721103 -263.36945 93.29435037 -263.0546875 91.94140625 C-255.6220479 61.92978163 -239.92132096 36.53065334 -219 14 C-218.46117187 13.40703125 -217.92234375 12.8140625 -217.3671875 12.203125 C-199.83269717 -6.30060851 -175.05700492 -20.17207372 -151 -28 C-149.83597656 -28.37898437 -148.67195313 -28.75796875 -147.47265625 -29.1484375 C-98.18825812 -43.6342385 -39.91414671 -32.73056616 0 0 Z " fill="#FEFEFE" transform="translate(2124,899)"/>
</svg>
